# xmcd
#
# Track frame offsets:
# 150
# 12758
# 26440
# 44142
# 58354
# 72860
# 90302
# 100705
# 113879
# 124833
# 140586
# 155324
#
# Disc length: 2308 seconds
#
#
# Revision: 0
# Processed by: cddbd v1.5.2PL0 Copyright (c) Steve Scherf et al.
# Submitted via: FreeRIP 2.945 
#
DISCID=9e09020c
DTITLE=David Parmley and Continental Divide - Church House Hymns
DYEAR=2007
DGENRE=Bluegrass Gospel
TTITLE0=The Gloryland Way
TTITLE1=Will You Meet Me Over Yonder
TTITLE2=I've Got A Home In That Rock
TTITLE3=Are You Washed In The Blood
TTITLE4=Farther Along
TTITLE5=Just Over In The Gloryland
TTITLE6=Won't It Be Wonderful There
TTITLE7=A Soul Winner For Jesus
TTITLE8=You Can Feel It In Your Soul
TTITLE9=The Unclouded Day
TTITLE10=I'm Standing On The Solid Rock
TTITLE11=There Is A Fountain
EXTD=
EXTT0=
EXTT1=
EXTT2=
EXTT3=
EXTT4=
EXTT5=
EXTT6=
EXTT7=
EXTT8=
EXTT9=
EXTT10=
EXTT11=
PLAYORDER=
